<svg xmlns="http://www.w3.org/2000/svg" xmlns:xlink="http://www.w3.org/1999/xlink" width="319" height="84" viewBox="0 0 638 168">
  <metadata><?xpacket begin="﻿" id="W5M0MpCehiHzreSzNTczkc9d"?>
<x:xmpmeta xmlns:x="adobe:ns:meta/" x:xmptk="Adobe XMP Core 5.6-c142 79.160924, 2017/07/13-01:06:39        ">
   <rdf:RDF xmlns:rdf="http://www.w3.org/1999/02/22-rdf-syntax-ns#">
      <rdf:Description rdf:about=""/>
   </rdf:RDF>
</x:xmpmeta>
                                                                                                    
                                                                                                    
                                                                                                    
                                                                                                    
                                                                                                    
                                                                                                    
                                                                                                    
                                                                                                    
                                                                                                    
                                                                                                    
                                                                                                    
                                                                                                    
                                                                                                    
                                                                                                    
                                                                                                    
                                                                                                    
                                                                                                    
                                                                                                    
                                                                                                    
                                                                                                    
                           
<?xpacket end="w"?></metadata>
<defs>
    <style>
      .cls-1 {
        fill: #fff;
        fill-rule: evenodd;
        filter: url(#filter);
      }
    </style>
    <filter id="filter" x="57" y="-3" width="517" height="177" filterUnits="userSpaceOnUse">
      <feOffset result="offset" dx="0.776" dy="2.898" in="SourceAlpha"/>
      <feGaussianBlur result="blur" stdDeviation="2.828"/>
      <feFlood result="flood" flood-opacity="0.59"/>
      <feComposite result="composite" operator="in" in2="blur"/>
      <feBlend result="blend" in="SourceGraphic"/>
    </filter>
  </defs>
  <path id="CLEAN_GOVERNMENT_NEW_JERSEY" data-name="CLEAN GOVERNMENT NEW JERSEY" class="cls-1" d="M89.137,43.343v8.035c0,4.018-1.878,5.464-4.865,5.464s-4.865-1.446-4.865-5.464V21.005c0-4.018,1.878-5.544,4.865-5.544s4.865,1.527,4.865,5.544v6.027h8.876V21.568c0-9-4.78-14.142-14-14.142s-14,5.143-14,14.142V50.816c0,9,4.78,14.142,14,14.142s14-5.143,14-14.142V43.343H89.137ZM102.02,64.316h24.837V56.28H111.408V8.068H102.02V64.316ZM138.631,16.1h16.216V8.068H129.242V64.316h25.605V56.28H138.631V39.808h12.887V31.772H138.631V16.1Zm41.134-8.035H166.024l-9.559,56.247h8.62l1.622-10.2h11.522l1.622,10.2h9.474Zm-7.425,9.964h0.171l4.438,28.445H167.9Zm39.683,46.284h9.645V8.068H213.3V41.736h-0.171L203.659,8.068H191.881V64.316h8.449V23.576H200.5Zm40.279-23.3h4.267V51.379c0,4.018-1.877,5.464-4.865,5.464s-4.865-1.446-4.865-5.464V21.005c0-4.018,1.878-5.544,4.865-5.544s4.865,1.527,4.865,5.544v6.027h8.877V21.568c0-9-4.78-14.142-14-14.142s-14,5.143-14,14.142V50.816c0,9,4.78,14.142,14,14.142s14-5.143,14-14.142V32.978H252.3v8.035Zm26.113-20.008c0-4.018,1.878-5.544,4.865-5.544s4.865,1.527,4.865,5.544V51.379c0,4.018-1.878,5.544-4.865,5.544s-4.865-1.527-4.865-5.544V21.005Zm-9.389,29.811c0,9,5.036,14.142,14.254,14.142s14.253-5.143,14.253-14.142V21.568c0-9-5.035-14.142-14.253-14.142s-14.254,5.143-14.254,14.142V50.816ZM308.8,8.068h-9.474l9.218,56.247h14l9.218-56.247h-8.62L316.051,53.95H315.88ZM343.785,16.1H360V8.068H334.4V64.316H360V56.28H343.785V39.808h12.888V31.772H343.785V16.1Zm49.5,48.212c-0.939-2.089-1.024-4.1-1.024-6.83V48.807c0-5.866-1.536-10.044-6.231-11.892V36.754c4.183-1.848,6.146-5.544,6.146-11.33V21.005c0-8.678-4.183-12.937-13.912-12.937H364.094V64.316h9.389v-22.9h3.243c4.268,0,6.145,1.928,6.145,7.151v8.839c0,4.58.342,5.464,0.854,6.91h9.559ZM378.006,16.1c3.329,0,4.78,1.768,4.78,5.785v5.544c0,4.5-2.134,5.946-5.633,5.946h-3.67V16.1h4.523Zm38.745,48.212H426.4V8.068h-8.364V41.736H417.86L408.387,8.068H396.608V64.316h8.45V23.576h0.171ZM444.4,8.068H431.34V64.316h8.194V24.541h0.171l6.828,39.775h8.876l6.316-40.337H461.9V64.316h8.876V8.068H457.713L451.4,48h-0.171ZM485.275,16.1h16.216V8.068h-25.6V64.316h25.6V56.28H485.275V39.808h12.888V31.772H485.275V16.1Zm40.366,48.212h9.645V8.068h-8.364V41.736h-0.171L517.277,8.068H505.5V64.316h8.449V23.576h0.171ZM537.585,16.1H547.4V64.316h9.389V16.1H566.6V8.068H537.585V16.1ZM116.8,162.128h15.378V72.448H118.846v53.68h-0.273l-15.1-53.68H84.69v89.68H98.161V97.174h0.272ZM155.18,85.26h25.855V72.448H140.211v89.68h40.824V149.316H155.18V123.053h20.548V110.242H155.18V85.26Zm71.036,76.868h19.868L256.7,72.448H243.634l-7.62,71.231h-0.272l-7.349-71.231H213.969l-7.076,70.719h-0.272l-7.893-70.719H184.167l10.615,89.68H215.33l5.307-47.787h0.272Zm49.536,0a65.407,65.407,0,0,0,7.213.256c11.294,0,21.5-4.612,21.5-22.548V72.448H289.5v68.413c0,6.918-3.81,8.583-8.573,8.583-1.633,0-3.538,0-5.171-.128v12.812ZM326.92,85.26h25.855V72.448H311.951v89.68h40.824V149.316H326.92V123.053h20.548V110.242H326.92V85.26Zm78.928,76.868c-1.5-3.331-1.633-6.534-1.633-10.89V137.4c0-9.352-2.449-16.014-9.933-18.961v-0.256c6.667-2.947,9.8-8.84,9.8-18.064V93.075c0-13.836-6.668-20.626-22.181-20.626H359.309v89.68h14.969V125.615h5.171c6.8,0,9.8,3.075,9.8,11.4V151.11c0,7.3.544,8.712,1.36,11.018h15.241ZM381.49,85.26c5.307,0,7.62,2.819,7.62,9.224v8.84c0,7.174-3.4,9.48-8.981,9.48h-5.851V85.26h7.212Zm27.9,8.712c0,10.249,3.946,17.68,16.466,28.057,9.8,8.071,12.791,12.94,12.791,19.473,0,6.406-2.993,8.712-7.756,8.712s-7.757-2.306-7.757-8.712V135.1H408.98V140.6c0,14.348,7.62,22.548,22.317,22.548s22.317-8.2,22.317-22.548c0-10.249-3.946-17.68-16.465-28.057-9.8-8.071-12.792-12.94-12.792-19.473,0-6.406,2.722-8.84,7.484-8.84s7.485,2.434,7.485,8.84V96.79h14.152V93.971c0-14.349-7.484-22.548-22.045-22.548S409.388,79.623,409.388,93.971Zm65.048-8.712h25.855V72.448H459.467v89.68h40.824V149.316H474.436V123.053h20.548V110.242H474.436V85.26Zm46.405,76.868H535.81V132.405l18.915-59.957H540.437l-11.295,40.869H528.87L517.576,72.448h-15.65l18.915,59.957v29.723Z"/>
</svg>
